<svg width="24" height="24" viewBox="0 0 24 24" fill="none" xmlns="http://www.w3.org/2000/svg">
<path d="M20.0499 10.9999H5.90994L7.20994 9.70994C7.39824 9.52164 7.50403 9.26624 7.50403 8.99994C7.50403 8.73364 7.39824 8.47825 7.20994 8.28994C7.02164 8.10164 6.76624 7.99585 6.49994 7.99585C6.23364 7.99585 5.97824 8.10164 5.78994 8.28994L2.78994 11.2899C2.69621 11.3829 2.62182 11.4935 2.57105 11.6154C2.52028 11.7372 2.49414 11.8679 2.49414 11.9999C2.49414 12.132 2.52028 12.2627 2.57105 12.3845C2.62182 12.5064 2.69621 12.617 2.78994 12.7099L5.78994 15.7099C5.8829 15.8037 5.9935 15.8781 6.11536 15.9288C6.23722 15.9796 6.36793 16.0057 6.49994 16.0057C6.63195 16.0057 6.76266 15.9796 6.88452 15.9288C7.00638 15.8781 7.11698 15.8037 7.20994 15.7099C7.30367 15.617 7.37806 15.5064 7.42883 15.3845C7.4796 15.2627 7.50574 15.132 7.50574 14.9999C7.50574 14.8679 7.4796 14.7372 7.42883 14.6154C7.37806 14.4935 7.30367 14.3829 7.20994 14.2899L5.90994 12.9999H20.0499C20.298 12.9878 20.5326 12.8838 20.7082 12.7082C20.8838 12.5326 20.9878 12.298 20.9999 12.0499V11.9999C21.0003 11.7432 20.9018 11.4961 20.7249 11.3099C20.5481 11.1238 20.3064 11.0128 20.0499 10.9999V10.9999Z" fill="black"/>
<path d="M20.05 17H3.95C3.42533 17 3 17.4253 3 17.95V18.05C3 18.5747 3.42533 19 3.95 19H20.05C20.5747 19 21 18.5747 21 18.05V17.95C21 17.4253 20.5747 17 20.05 17Z" fill="black"/>
<path d="M20.05 5H3.95C3.42533 5 3 5.42533 3 5.95V6.05C3 6.57467 3.42533 7 3.95 7H20.05C20.5747 7 21 6.57467 21 6.05V5.95C21 5.42533 20.5747 5 20.05 5Z" fill="black"/>
</svg>
